<svg baseProfile="basic" xmlns="http://www.w3.org/2000/svg" xmlns:xlink="http://www.w3.org/1999/xlink" viewBox="0 0 128 128"><defs><pattern id="a" patternUnits="userSpaceOnUse" width="100%" height="90%"><image xlink:href="https://assets.website-files.com/5bfd1275cc56e15ce750b18e/5c289afb9a15751771893a4b_23.%20California.jpg" width="100%" height="90%"/></pattern></defs><path d="M71.64 86.25c13.45 1.89 24.25 10.34 27.52 21.28M32.58 107.37C35.94 96.4 46.9 87.95 60.49 86.18M47.3 97.87h3.04M61.9 94.58h3.04M76.57 97.87h3.04" fill="none" stroke="url(#a)" stroke-width="2" stroke-miterlimit="10"/><circle cx="107.13" cy="20.86" r="7.97" fill="none" stroke="url(#a)" stroke-width="2" stroke-miterlimit="10"/><path d="M33.87 21.59s3.27-.42 7.29 1.08c0 0 .88-4.96 2.78-7.6M68.45 36.82v3.03l-.59.32a5.28 5.28 0 00-4.36-2.31 5.25 5.25 0 00-5.25 5.25c0 .71.14 1.38.39 2l-4.08 2.19-4.48-3.57-1.47 4.78-14.74 7.42c4.7-10.82 10.48-16.35 15.95-18.98 9.79-4.71 18.63-.13 18.63-.13z" fill="none" stroke="url(#a)" stroke-width="2" stroke-miterlimit="10"/><path d="M68.45 36.82s-8.84-4.58-18.64.13l-.91-1.9-3.42 3.66-16.5.26c25-21.49 39.47-2.15 39.47-2.15M68.45 36.82v3.03l13.9 7.45 4.48-3.57 1.47 4.78 14.74 7.42c-4.7-10.82-10.48-16.35-15.95-18.98-9.8-4.72-18.64-.13-18.64-.13z" fill="none" stroke="url(#a)" stroke-width="2" stroke-miterlimit="10"/><path d="M68.45 36.82s8.84-4.58 18.64.13l.91-1.9 3.42 3.66 16.5.26c-24.99-21.49-39.47-2.15-39.47-2.15M68.75 43.11c0-1.09-.33-2.1-.89-2.94l.59-.32 2.6 1.39c-.13.64-.25 1.27-.37 1.89-.17-.01-.33-.03-.5-.03-.5 0-.99.07-1.44.21.01-.05.01-.13.01-.2zM72.12 87.14H60.64c-.05-.32-.11-.64-.14-.96-2.89-18.76-.51-31.02 1.94-37.92.34.07.7.11 1.06.11.5 0 .99-.07 1.44-.21-.01.07-.01.14-.01.21 0 2.51 1.76 4.61 4.12 5.14-2.35 20.02 1.26 29.89 2.59 32.75.29.59.48.88.48.88zM59.45 62.84h3.97M59.45 73.68h3.97" fill="none" stroke="url(#a)" stroke-width="2" stroke-miterlimit="10"/><path d="M68.75 43.11c0 .07 0 .14-.01.21-2.14.6-3.72 2.52-3.8 4.83-.46.14-.95.21-1.44.21a5.284 5.284 0 01-4.86-3.26c-.25-.62-.39-1.29-.39-2 0-2.9 2.35-5.25 5.25-5.25 1.81 0 3.42.92 4.36 2.31.57.85.89 1.86.89 2.95z" fill="none" stroke="url(#a)" stroke-width="2" stroke-miterlimit="10"/><path d="M75.44 48.37c0 2.9-2.35 5.25-5.25 5.25-.39 0-.78-.04-1.13-.12a5.274 5.274 0 01-4.12-5.14c0-.07 0-.14.01-.21a5.193 5.193 0 013.8-4.83c.46-.14.95-.21 1.44-.21.17 0 .33.01.5.03a5.25 5.25 0 014.75 5.23z" fill="none" stroke="url(#a)" stroke-width="2" stroke-miterlimit="10"/></svg>